<svg xmlns="http://www.w3.org/2000/svg" width="156" height="92" viewBox="0 0 156 92"><g transform="translate(-1711 -901)"><g transform="translate(1711 901)"><circle cx="10.5" cy="10.5" r="10.5" fill="#1e0e95"/><ellipse cx="10" cy="10.5" rx="10" ry="10.5" transform="translate(34)" fill="#1e0e95"/><circle cx="10.5" cy="10.5" r="10.5" transform="translate(68)" fill="#1e0e95"/><circle cx="10.5" cy="10.5" r="10.5" transform="translate(101)" fill="#1e0e95"/><circle cx="10.5" cy="10.5" r="10.5" transform="translate(135)" fill="#1e0e95"/></g><g transform="translate(1711 936.797)"><circle cx="10.5" cy="10.5" r="10.5" transform="translate(0 0.203)" fill="#1e0e95"/><ellipse cx="10" cy="10.5" rx="10" ry="10.5" transform="translate(34 0.203)" fill="#1e0e95"/><circle cx="10.5" cy="10.5" r="10.5" transform="translate(68 0.203)" fill="#1e0e95"/><circle cx="10.5" cy="10.5" r="10.5" transform="translate(101 0.203)" fill="#1e0e95"/><circle cx="10.5" cy="10.5" r="10.5" transform="translate(135 0.203)" fill="#1e0e95"/></g><g transform="translate(1711 972.593)"><ellipse cx="10.5" cy="10" rx="10.5" ry="10" transform="translate(0 0.407)" fill="#1e0e95"/><circle cx="10" cy="10" r="10" transform="translate(34 0.407)" fill="#1e0e95"/><ellipse cx="10.5" cy="10" rx="10.5" ry="10" transform="translate(68 0.407)" fill="#1e0e95"/><ellipse cx="10.5" cy="10" rx="10.5" ry="10" transform="translate(101 0.407)" fill="#1e0e95"/><ellipse cx="10.5" cy="10" rx="10.5" ry="10" transform="translate(135 0.407)" fill="#1e0e95"/></g></g></svg>