<svg xmlns="http://www.w3.org/2000/svg" width="92" height="156" viewBox="0 0 92 156"><defs><style>.a{fill:#1e0e95;}</style></defs><g transform="translate(993 -1711) rotate(90)"><g transform="translate(1711 901)"><circle class="a" cx="10.5" cy="10.5" r="10.5"/><ellipse class="a" cx="10" cy="10.5" rx="10" ry="10.5" transform="translate(34)"/><circle class="a" cx="10.5" cy="10.5" r="10.5" transform="translate(68)"/><circle class="a" cx="10.5" cy="10.5" r="10.5" transform="translate(101)"/><circle class="a" cx="10.5" cy="10.5" r="10.5" transform="translate(135)"/></g><g transform="translate(1711 936.797)"><circle class="a" cx="10.5" cy="10.5" r="10.5" transform="translate(0 0.203)"/><ellipse class="a" cx="10" cy="10.5" rx="10" ry="10.5" transform="translate(34 0.203)"/><circle class="a" cx="10.5" cy="10.5" r="10.5" transform="translate(68 0.203)"/><circle class="a" cx="10.5" cy="10.5" r="10.5" transform="translate(101 0.203)"/><circle class="a" cx="10.5" cy="10.5" r="10.5" transform="translate(135 0.203)"/></g><g transform="translate(1711 972.593)"><ellipse class="a" cx="10.5" cy="10" rx="10.5" ry="10" transform="translate(0 0.407)"/><circle class="a" cx="10" cy="10" r="10" transform="translate(34 0.407)"/><ellipse class="a" cx="10.5" cy="10" rx="10.5" ry="10" transform="translate(68 0.407)"/><ellipse class="a" cx="10.5" cy="10" rx="10.5" ry="10" transform="translate(101 0.407)"/><ellipse class="a" cx="10.5" cy="10" rx="10.5" ry="10" transform="translate(135 0.407)"/></g></g></svg>