<svg xmlns="http://www.w3.org/2000/svg" xmlns:xlink="http://www.w3.org/1999/xlink" viewBox="0 0 1116.08 1081.85"><defs><style>.cls-1{fill:url(#linear-gradient);}.cls-2{fill:url(#linear-gradient-2);}.cls-3{fill:url(#linear-gradient-3);}.cls-4{fill:#74818e;}.cls-5{fill:#fda080;}.cls-6{fill:#f4907c;}.cls-7{fill:#668689;}.cls-8,.cls-9{fill:gray;}.cls-8{opacity:0.4;isolation:isolate;}.cls-10{fill:#e5e5e5;}.cls-11{fill:#666;}.cls-12{fill:#cbcbcb;}.cls-13{fill:#fff;}.cls-14{fill:#a5b4c2;}.cls-15{fill:#eac9b8;}.cls-16{fill:#c4ccd7;}.cls-17{fill:#fad1b1;}.cls-18{fill:#647889;}.cls-19{fill:#f8fbfc;}.cls-20{fill:#d4d2d1;}.cls-21{fill:#fdf5ea;}.cls-22{fill:#80c1d8;}.cls-23{fill:#f39475;}.cls-24{fill:#e74a5f;}.cls-25{fill:#c9364f;}.cls-26{fill:#393f4b;}.cls-27{fill:#040435;}.cls-28{fill:#63adc1;}.cls-29{fill:#6f251e;}.cls-30{fill:#e28166;}.cls-31{fill:#f16a44;}.cls-32{fill:#93603d;}.cls-33{fill:#a4704c;}.cls-34{fill:#f9e1df;}</style><linearGradient id="linear-gradient" x1="534.32" y1="749.23" x2="953.57" y2="110.04" gradientUnits="userSpaceOnUse"><stop offset="0" stop-color="#0a0362"/><stop offset="1" stop-color="#0c0572"/></linearGradient><linearGradient id="linear-gradient-2" x1="197.47" y1="884.09" x2="686.73" y2="980.74" gradientUnits="userSpaceOnUse"><stop offset="0.42" stop-color="#290f76"/><stop offset="1" stop-color="#1e0e95"/></linearGradient><linearGradient id="linear-gradient-3" x1="200.19" y1="928.96" x2="509.06" y2="986.88" gradientUnits="userSpaceOnUse"><stop offset="0.65" stop-color="#290f76"/><stop offset="1" stop-color="#300ea1"/></linearGradient></defs><g id="Layer_2" data-name="Layer 2"><g id="Layer_1-2" data-name="Layer 1"><path class="cls-1" d="M1116.08,0V1052h-447c-26.94-19.86-69.26-46.21-126-62-39.83-11.09-61.41-9.91-105.5-18.5A503.47,503.47,0,0,1,286.08,920c-2.94-1.56-6.75-3.62-11.31-6.21C246.08,897.47,188,860.17,133.09,794.73l-2.72-3.27C92,744.91-65.48,516,30.58,330.5c7.3-14.1,45.41-87.69,125-124,96.42-44,140.14,18.52,264-26,0,0,67.33-23.56,170-93,29.2-19.74,61.49-43.28,61.49-43.28,14-10.22,23-16.9,26-19.22C707.75,1.37,712.94,8.41,729.6,1.37Z"/><path class="cls-2" d="M1116.08,1042.87v39H685.92c-25.69-18.94-66-44.07-120.16-59.13-38-10.57-58.56-9.45-100.61-17.64A479.89,479.89,0,0,1,320.68,956c-2.81-1.49-6.44-3.45-10.79-5.92-27.36-15.57-82.75-51.14-135.11-113.54-.8-1-1.67-2-2.59-3.12,111.34,71.9,203.29,88.88,261.49,92.54,52.3,3.3,115.53-1.74,237.46-11.44,112.51-9,117-13.88,148.76-8.59,108.48,18.06,111.38,84.4,222.2,119.21,22.86,7.18,37.46,11.57,67.89,16.87C1110,1042,1112.31,1042.38,1116.08,1042.87Z"/><path class="cls-3" d="M840.24,1081.75l-155-.43c-26.94-19.85-66.71-43.91-123.45-59.69-39.83-11.08-61.8-9.64-105.89-18.23-37.38-6.35-90.68-25-150.16-56.59-2.94-1.56-6.75-3.62-11.31-6.21,49.11,5.11,112.44,6.4,216.14,8.49,118.34,2.38,123.5-2.27,156.12,6.56C760.13,981,772.35,1037.05,840.24,1081.75Z"/><path class="cls-4" d="M924,1032.74a15.56,15.56,0,1,1-1-31.11,158.12,158.12,0,0,0,43.52-11.5A187.87,187.87,0,0,0,1048.15,926a15.56,15.56,0,0,1,25.12,18.38h0c-59.93,81.91-144.63,88.1-148.2,88.3Z"/><path class="cls-4" d="M318.8,752a15.56,15.56,0,1,1,31.1-1h0a159.09,159.09,0,0,0,11.44,43.56,187.68,187.68,0,0,0,64.14,81.5,15.59,15.59,0,1,1-18,25.47l-.44-.32c-81.84-59.83-88-144.66-88.23-148.3C318.81,752.64,318.8,752.33,318.8,752Z"/><path class="cls-4" d="M782.49,138a15.59,15.59,0,0,1-20.08,23.82,156.63,156.63,0,0,0-40-20.59,188,188,0,0,0-103.49-6.81,15.64,15.64,0,1,1-6.36-30.62C711.88,83,779,135.11,781.74,137.35Z"/><polygon class="cls-5" points="399.28 739.03 488.95 692 522.74 780.88 433.85 812.23 399.28 739.03"/><path class="cls-6" d="M428.14,735.15s28.21-5.82,40.22,0,22.25,41.62,22.25,41.62L549.79,781,496.26,680.33,440.79,706.6Z"/><path class="cls-7" d="M447.74,402.2a89.92,89.92,0,0,0-46.2,118.46l0,0L553.81,867.42a89.9,89.9,0,0,0,118.46,46.19h0l443.06-194.68V109Z"/><circle class="cls-8" cx="1045.06" cy="675.97" r="30.25"/><circle class="cls-8" cx="925.69" cy="277.39" r="30.25"/><circle class="cls-8" cx="496.44" cy="504.63" r="30.25" transform="translate(-109.05 871.35) rotate(-76.67)"/><path class="cls-9" d="M705.17,697.17l-28.86,29.54L555.17,831.83l-18.92-4.39,17.56,40a87,87,0,0,0,5.58,10.65c14.36-3.88,32.26-9.63,40-15.75,14-11,77.55-100.25,77.55-100.25s18.82-11.68,21.34-18,7.21-34,9.15-38.46A8.13,8.13,0,0,0,705.17,697.17Z"/><path class="cls-9" d="M595.53,681c6.5-.64,11.33-9.73,11.33-9.73l10.21-4.56,1.29-10.21-16.84-7.14L506.88,622.1,448,609.31l-3,9.93,17,39.14,98.69,19.5S589,681.48,595.53,681Z"/><path class="cls-8" d="M886.34,606.62l6.57,61.25,34.85,56.39,53.18,54L761.05,874.43l-13-106L735.52,712l-34.91-59.79,182.33-79.63a9.9,9.9,0,0,1,1.36,3.95C884.44,578.44,886.34,606.62,886.34,606.62Z"/><rect class="cls-10" x="738.79" y="638.76" width="182.64" height="124.72" rx="6.19" transform="translate(-209.96 386.61) rotate(-23.36)"/><rect class="cls-11" x="750.19" y="644.99" width="144.9" height="77.55" rx="5.04" transform="translate(-203.69 382.23) rotate(-23.36)"/><rect class="cls-12" x="829.33" y="723.07" width="33.25" height="29.3" rx="5.21" transform="translate(-223.17 395.9) rotate(-23.36)"/><path class="cls-13" d="M877.84,571.64l-87.32,37.7L703.2,647.08a4.59,4.59,0,0,0-2.39,6,4.76,4.76,0,0,0,.85,1.31L722.9,677a3.4,3.4,0,0,0,3.78.78l78.74-34,78.71-34a3.4,3.4,0,0,0,2-3.4l-1.94-31a4.56,4.56,0,0,0-5-4.12A4.46,4.46,0,0,0,877.84,571.64Z"/><path class="cls-9" d="M886.34,606.62l-1.9-30.8a4.63,4.63,0,0,0-5-.71l-87.32,37.7-87.32,37.74a4.58,4.58,0,0,0-2.89,4.09l21.13,22.49a3.4,3.4,0,0,0,3.78.78l78.74-34,78.71-34A3.39,3.39,0,0,0,886.34,606.62Z"/><path class="cls-14" d="M878.41,608.49l-.57-25.42a4.32,4.32,0,0,0-4.43-.41L793.85,617,714.26,651.4a4.27,4.27,0,0,0-2.73,3.41l18.11,17.83a3,3,0,0,0,3.4.51l71.63-30.9,71.74-31A3,3,0,0,0,878.41,608.49Z"/><path class="cls-15" d="M801,794.94l-7.08-34s6.8-21.61,6.16-25.73-7.79-29.94-7.79-29.94-4.94-.51-6,2.11,0,15.24,0,15.24a32.29,32.29,0,0,1-4.7-6.33c-.82-1.77-2.52-19.5-3.4-28a4.94,4.94,0,0,0-4.94-4.53h0a5,5,0,0,0-4.93,4.32l-1.29,10-8.41,1.66-3.91,9.19-8.85,18.92,5.58,21.34,12.45,16.47,2.62,29.3Z"/><path class="cls-15" d="M920.07,744.07l-23.52-25.66s-21.4-7.25-24.43-10.21-19.7-23.82-19.7-23.82,2.45-4.29,5.2-3.61S870,689.69,870,689.69a33.47,33.47,0,0,0-2.34-7.52c-1-1.71-14.36-13.62-20.8-19.1a4.93,4.93,0,0,1-.78-6.8h0a5,5,0,0,1,6.43-1.46l8.85,4.79,6.26-5.82,9.77,2.22,20.42,3.88,14,17,6.05,19.74,22.23,19.29Z"/><rect class="cls-13" x="538.01" y="633.96" width="152.69" height="109.44" transform="translate(-195.42 245.99) rotate(-19.6)"/><rect class="cls-16" x="536.75" y="634.85" width="148.78" height="101.31" transform="translate(-194.54 244.73) rotate(-19.6)"/><rect class="cls-13" x="530.47" y="626.29" width="152.69" height="109.44" transform="translate(-193.28 243.02) rotate(-19.6)"/><path class="cls-17" d="M542.07,622.34l18,7.59s20.42-4.32,27.22-1.74a265.3,265.3,0,0,1,29.23,17A23.78,23.78,0,0,1,622,655.42a13.17,13.17,0,0,1-9.05,8.4c-4.7.45-26.38,1.09-26.38,1.09A81.82,81.82,0,0,1,593,671a6.8,6.8,0,0,1,.38,5.61c-.75.65-17.42-6.46-22.22-8a47.09,47.09,0,0,1-13.21-9.09c-1.29-1.29-5.68-6.26-5.68-6.26l-19.8-8Z"/><path class="cls-17" d="M655.45,768.33l12.49-14.94s20.42-5.58,25.12-11,3.4-14,4.49-16.34-.58-17.49.47-18.58c3.75-4,9-7.86,12.08-11.26,5.45-6,1.57-8.71-1.19-7.59C704.52,690.4,675.56,710,675.56,710a84.43,84.43,0,0,0,2.93-8.31c.2-1.56-1.29-4.93-2.25-5.17s-12.52,13.61-16.06,17.29A46.81,46.81,0,0,0,652.59,728c-.54,1.73-2.17,8.17-2.17,8.17l-14,16.23Z"/><rect class="cls-18" x="646.72" y="415.98" width="145.95" height="97.9" rx="12.97" transform="translate(-110 251.08) rotate(-18.41)"/><path class="cls-19" d="M793.17,495.55,679.31,533.46a16.27,16.27,0,0,1-20.42-10.21L636.16,455a16.25,16.25,0,0,1,10.21-20.41l113.86-37.91a16.27,16.27,0,0,1,20.59,10.21l22.73,68.26A16.27,16.27,0,0,1,793.17,495.55ZM653.44,438.89a9.62,9.62,0,0,0-6.1,12.17v0l22.74,68.27a9.63,9.63,0,0,0,12.18,6.09h0l108.89-36.21a9.63,9.63,0,0,0,6.11-12.17l0,0-22.73-68.27a9.63,9.63,0,0,0-12.18-6.09h0Z"/><path class="cls-20" d="M657.63,485.58A4,4,0,1,1,652.5,483h0A4.05,4.05,0,0,1,657.63,485.58Z"/><polygon class="cls-8" points="552.89 356.03 660.32 510.32 708.74 498.1 695.1 465.67 667.13 457.77 634.25 398.6 802.83 337.11 805.42 310.36 783.23 254.89 552.89 356.03"/><path class="cls-21" d="M702.75,480.71,680.5,470.5a2.63,2.63,0,0,0-3.2.78l-.2.31a2.61,2.61,0,0,0,.49,3.67,2.37,2.37,0,0,0,.53.31l22.49,9.9a2.57,2.57,0,0,0,3.4-1.15,2.62,2.62,0,0,0-1.11-3.54Z"/><path class="cls-15" d="M654.94,337.11a56.54,56.54,0,0,1-12.66,3.4c-6.12.78-13.91-2.62-19.12-1.77s-18.17,9.9-18.17,9.9l-5,12.12-2.93,20,22.29,9.09s5.72,2.55,15-2.42A212.09,212.09,0,0,0,660.49,368l11.23-5.85Z"/><path class="cls-15" d="M670.49,449.51l15.18,5.27s8,8.54,9.43,10.89,0,9.39,0,9.39,5.27,5.28,5,10.21-8.24,11.74-18.21,12.05-20.42,1.46-22.9,0-13.61-23.82-13.61-23.82l-15.86-21.88,30.83-15Z"/><path class="cls-22" d="M349,765.13s-5-52,6.8-68.06,75.58-128.32,81-132.71,118.42,57.85,118.42,57.85-12.66,29.74-14,30.32-85.08-29.92-85.08-29.92l-14.6,46.86,21.65-8.4,19.46,44.24s-23.07,14.49-62.24,33.79A335.72,335.72,0,0,1,349,765.13Z"/><path class="cls-22" d="M392.54,850.07c-.51,1.32,56.25,43.08,78.27,35.56s107.23-28.69,118.83-37,75.51-84.19,75.51-84.19l-20.42-24.74-67.44,61-46.42,14.43-22-50.09S414.52,793.78,392.54,850.07Z"/><path class="cls-23" d="M756.83,784l50.33-6.8,19,68.74,128.64-56.49-44.62-44.24,30.63-37.26,98.89,81.19s29,85.48,28.21,94.94-35.08,81.26-87.15,105.49-122.51-7.11-132-9.29-65-72.82-66-75.17S756.83,784,756.83,784Z"/><path class="cls-24" d="M808.42,303.76c-6.4-34-9.33-110.63-15.69-121.49-8.34-14.22-27.6-34-58-46,0,0-130-11.23-159.94,7.12s-40.53,179.5-40.46,186.82S634.52,464.92,634.52,464.92L666.31,440,602,334.38,744.75,271.7l2.55,17.8-99.67,46.07,19.77,35.36L795,326.69A20.18,20.18,0,0,0,808.42,303.76Z"/><polygon class="cls-25" points="649.74 452.94 637.69 455.5 535.09 332.27 634.46 464.92 649.74 452.94"/><path class="cls-25" d="M808.55,310.36a38.09,38.09,0,0,1-15.45,12.15c-9.42,3.4-119.75,37.43-119.75,37.43l-13-1.74,7.08,12.7L795,326.66A20.21,20.21,0,0,0,808.55,310.36Z"/><path class="cls-25" d="M602,334.38l20.42-151.16s58.84-6.05,75.27,0,41,17,41,17l6,71.46Z"/><path class="cls-25" d="M584.4,154.37s31.07,38.08,31.75,75.48,12.79,21.81,12.79,21.81l-6.5-68.33S606.45,161.28,584.4,154.37Z"/><path class="cls-25" d="M740,216.13s-6.81-40.15,12.59-59.62a61.91,61.91,0,0,0-32,38.93C713.27,223.55,740,216.13,740,216.13Z"/><path class="cls-15" d="M712.79,187.78c1-.4-.78,27.23-.78,27.23l-9.12,14.15s-21.17,15.15-25.15,17-27.22,2.18-27.22,2.18-6.81,3.4-10.21,1.8-6.81-13-6.81-13-12.83-6.8-12.35-33.42,34-38.07,34-38.07Z"/><path class="cls-15" d="M629.29,138.54s-7.86-3.23-12.36,2.79,3.1,17,3.1,17Z"/><path class="cls-15" d="M734.71,189.08s5.85,1.63,5.88,6.53-11.23,17-19.09,16S734.71,189.08,734.71,189.08Z"/><path class="cls-26" d="M617.51,195.54s-4.42-47.91,11.23-70.71,32.77-26.71,32.77-26.71a44.24,44.24,0,0,1,36.72-3.41A76.73,76.73,0,0,1,743.08,141c6.57,20-2.89,49.1-14,63.23a148.8,148.8,0,0,1-26.37,25.14s6.33-18.58-1.06-19.73c0,0-29.7,22.53-49.51,21.27s-23.58-5.38-23.58-5.38,24.19-5.79,34.3-14.12c0,0-28.28,8.4-41.14,8.1l9.53-12-6.57,3.2A23.83,23.83,0,0,1,617.51,195.54Z"/><path class="cls-27" d="M458.59,799.06s2.66,10.68-2.11,18.2-13.85,9-19.9,17.46-17.9,25-34.58,25.39-29.19-17-38.93-20.83-34.6,3.23-42.4-12.32,10.59-41.75-1.49-55.16-10.38-29.5-3.41-37.19c11.2-12.53,25.93-13.62,43.05-4s26.82,2.48,34.57,0,21-3.4,26-1.33,8.34,10.93,8.34,10.93Z"/><path class="cls-28" d="M463.12,661.07l-21.68,8.37-13.3,33.72s21.09-2.92,26,0a57.1,57.1,0,0,1,10.21,12.9c11.81-6.81,18.24-10.69,18.24-10.69Z"/><path class="cls-28" d="M508.89,765.13s-5.82,1.77-14.87,5.27c3.94,9.06,9.69,24.37,8.4,33.52-1.94,13.61-19.84,24-19.84,24l48.29-12.69Z"/><path class="cls-17" d="M887.5,903.77s-8.61-23.38,0-37.13c10.21-16,38.25-26.51,56-19.67,26,10.21,24.19,18.44,24.19,18.44Z"/><path class="cls-29" d="M980.57,867.59s-18.82-20.42-46.79-15.82S899.58,862,899.58,862l7.18-.14-13,9.94s-15.42,25.15-15,43.05a55.23,55.23,0,0,0,8.88,29.29s3.4,17.53,11.57,25,28.21,15.48,43.22,13.91a76.25,76.25,0,0,0,28.14-9.49,35,35,0,0,0,22.29-12.25,36.84,36.84,0,0,0,8.85-23.82s9.08-11.26,9.56-17.9-4.59-23.45-4.59-23.45S1000.38,868.65,980.57,867.59Z"/><path class="cls-30" d="M826.14,846.05,834,878.21l21.41,25.56s5.81-35.84,33.72-58.91,76.57-17.25,83.71-17S1007.18,860,1007.18,860l-14.9-39.75-37.44-30.8Z"/><path class="cls-30" d="M1059.21,905.33s-52.71,67.79-101.41,81.23c-42.6,11.74-94.36-1.74-106.51-5.28,16,5.31,80.72,31.18,129.31,8.51C1017.76,972.54,1045.84,931.16,1059.21,905.33Z"/><path class="cls-21" d="M690.6,475.1l-24.73-11.4a2.86,2.86,0,0,0-3.41.91l-.24.31a2.94,2.94,0,0,0,.6,4.1,2.39,2.39,0,0,0,.56.32l25,11a2.86,2.86,0,0,0,3.74-1.29,2.93,2.93,0,0,0-1.34-3.92Z"/><rect class="cls-13" x="862.08" y="443.72" width="152.69" height="109.44"/><rect class="cls-16" x="862.08" y="443.72" width="148.78" height="101.31"/><rect class="cls-13" x="857.52" y="433.99" width="152.69" height="109.44"/><rect class="cls-13" x="881.51" y="332.33" width="152.69" height="109.44" transform="translate(-47.81 150.57) rotate(-8.77)"/><rect class="cls-16" x="880.91" y="332.69" width="148.78" height="101.31" transform="translate(-47.28 150.13) rotate(-8.77)"/><rect class="cls-13" x="875.52" y="323.41" width="152.69" height="109.44" transform="translate(-46.52 149.55) rotate(-8.77)"/><path class="cls-31" d="M461.42,517.39a4.54,4.54,0,0,0,6.27,1.48h0l15.83-9.8-4.84-7.93L462.91,511a4.6,4.6,0,0,0-1.57,6.31Z"/><circle class="cls-31" cx="498.18" cy="494.62" r="28.14" transform="translate(-203.84 497.13) rotate(-45)"/><path class="cls-19" d="M472.24,490a25,25,0,0,1,2.24-7.66A26,26,0,0,1,493.2,468l2-.27h4.19a13.89,13.89,0,0,1,2,0,25.51,25.51,0,0,1,19.33,13.14,27.94,27.94,0,0,0-12.18-9.77,26.89,26.89,0,0,0-15.22-1.67,27.3,27.3,0,0,0-13.61,7A28.19,28.19,0,0,0,472.24,490Z"/><circle class="cls-32" cx="498.17" cy="494.63" r="22.73"/><path class="cls-33" d="M476.36,501.13a22.73,22.73,0,0,0,44.23-3.4,22.73,22.73,0,0,0-44.23,3.4Z"/><path class="cls-19" d="M514,484.59a.38.38,0,0,0-.51,0,.36.36,0,0,0,0,.51,18.07,18.07,0,0,1-15.25,27.7,19.59,19.59,0,0,1-2.86-.24.36.36,0,0,0-.24.47.36.36,0,0,0,.24.25,18.37,18.37,0,0,0,3,.24,18.76,18.76,0,0,0,15.86-28.79Z"/><path class="cls-19" d="M487.62,480a.35.35,0,0,0,0-.48l0,0a.33.33,0,0,0-.48,0l0,0a18.75,18.75,0,0,0-4.21,26.18,19.61,19.61,0,0,0,1.28,1.58.26.26,0,0,0,.24,0,.42.42,0,0,0,.27,0,.36.36,0,0,0,0-.51,18,18,0,0,1,1.36-25.47c.48-.43,1-.83,1.5-1.21Z"/><path class="cls-19" d="M498.17,483a12.49,12.49,0,0,1,1.73,0,.38.38,0,0,0,.25-.47.39.39,0,0,0-.25-.25,11.18,11.18,0,0,0-1.83,0,12.39,12.39,0,0,0-12.36,12.39,17.42,17.42,0,0,0,0,1.77.37.37,0,0,0,.38.3h0a.34.34,0,0,0,.31-.36s0,0,0,0a15.5,15.5,0,0,1,0-1.67A11.67,11.67,0,0,1,498.07,483Z"/><path class="cls-19" d="M507.22,503.07a.41.41,0,0,0,0-.55.41.41,0,0,0-.51,0,11.67,11.67,0,0,1-17.12-.06.37.37,0,0,0-.54.47,12.38,12.38,0,0,0,17.5.67c.23-.21.46-.44.67-.67Z"/><path class="cls-19" d="M503.44,484.11a11.61,11.61,0,0,1,6.37,10.42c0,.29,0,.59,0,.88a.33.33,0,0,0,.3.37h0a.38.38,0,0,0,.37-.34v-.92a12.35,12.35,0,0,0-6.81-11.06.35.35,0,0,0-.47,0,.33.33,0,0,0-.19.44A.34.34,0,0,0,503.44,484.11Z"/><path class="cls-19" d="M498.17,504.23a9.52,9.52,0,0,0,8.23-4.67.33.33,0,0,0-.47-.47,8.85,8.85,0,0,1-7.63,4.28.38.38,0,0,0-.37.38.37.37,0,0,0,.37.37Z"/><path class="cls-19" d="M504.46,488.33a.37.37,0,0,0,.51-.14.35.35,0,0,0,0-.37,9.66,9.66,0,0,0-13.66.1,9.52,9.52,0,0,0-1.45,1.88.35.35,0,0,0,0,.47h.21a.37.37,0,0,0,.31-.2,8.91,8.91,0,0,1,12.2-3.15,9.18,9.18,0,0,1,1.75,1.35Z"/><path class="cls-31" d="M954.91,238.05a4.57,4.57,0,0,0-6.46,0l-13.17,13.17,6.46,6.46,13.17-13.17a4.52,4.52,0,0,0,.07-6.4Z"/><circle class="cls-31" cx="923.54" cy="269.61" r="28.14"/><path class="cls-19" d="M897.61,265a25.69,25.69,0,0,1,6.8-14.33A26.82,26.82,0,0,1,918.57,243l2-.27a13.89,13.89,0,0,1,2,0h4.08a26,26,0,0,1,14.5,6.81,26.75,26.75,0,0,1,4.9,6.57,28,28,0,0,0-12-9.87,26.66,26.66,0,0,0-28.83,5.37A27.83,27.83,0,0,0,897.61,265Z"/><circle class="cls-32" cx="923.57" cy="269.63" r="22.73"/><path class="cls-33" d="M901.76,276.09a22.73,22.73,0,0,0,44.24-3.4,22.73,22.73,0,0,0-44.24,3.4Z"/><path class="cls-19" d="M939.39,259.52a.33.33,0,0,0-.47,0,.36.36,0,0,0,0,.51,18,18,0,0,1-15.21,27.67h0a20.1,20.1,0,0,1-2.9-.21.38.38,0,0,0-.24.47.4.4,0,0,0,.24.25,23.3,23.3,0,0,0,3,.23,18.73,18.73,0,0,0,15.58-28.92Z"/><path class="cls-19" d="M913,255a.33.33,0,0,0,0-.47.36.36,0,0,0-.51,0,18.75,18.75,0,0,0-4.25,26.17,16.57,16.57,0,0,0,1.29,1.59.26.26,0,0,0,.27,0,.33.33,0,0,0,.24,0,.38.38,0,0,0,0-.51,17.92,17.92,0,0,1-4.53-12A18.24,18.24,0,0,1,913,255Z"/><path class="cls-19" d="M923.57,258a9.65,9.65,0,0,1,1.7,0,.4.4,0,0,0,.44-.31.41.41,0,0,0-.3-.41,11.3,11.3,0,0,0-1.84,0,12.39,12.39,0,0,0-12.39,12.39v.07a10.82,10.82,0,0,0,0,1.8.38.38,0,0,0,.34.31h0a.35.35,0,0,0,.32-.37s0,0,0,0a9.65,9.65,0,0,1,0-1.7A11.67,11.67,0,0,1,923.43,258Z"/><path class="cls-19" d="M932.62,278.06a.36.36,0,0,0,0-.51.34.34,0,0,0-.48,0l0,0a11.68,11.68,0,0,1-16.5.52c-.17-.17-.35-.34-.51-.52a.35.35,0,0,0-.48,0l0,0a.36.36,0,0,0,0,.51,12.35,12.35,0,0,0,17.45.72q.38-.34.72-.72Z"/><path class="cls-19" d="M928.85,259.25a11.63,11.63,0,0,1,6.36,10.21,6.46,6.46,0,0,1,0,.88.37.37,0,0,0,.34.41h0a.34.34,0,0,0,.34-.34h0a7.53,7.53,0,0,0,0-1,12.32,12.32,0,0,0-6.81-11,.37.37,0,0,0-.52,0,.38.38,0,0,0,0,.53.35.35,0,0,0,.2.1Z"/><path class="cls-19" d="M923.57,279.22a9.52,9.52,0,0,0,8.2-4.63.36.36,0,0,0,0-.51.38.38,0,0,0-.51,0,8.8,8.8,0,0,1-7.59,4.29.38.38,0,0,0-.37.38h0a.33.33,0,0,0,.17.44A.19.19,0,0,0,923.57,279.22Z"/><path class="cls-19" d="M929.83,263.36a.37.37,0,1,0,.65-.37.47.47,0,0,0-.14-.14,9.45,9.45,0,0,0-6.8-2.82,9.68,9.68,0,0,0-8.31,4.76.38.38,0,0,0,0,.51h.17a.36.36,0,0,0,.31-.17,8.85,8.85,0,0,1,12.09-3.24,8.66,8.66,0,0,1,1.86,1.44Z"/><path class="cls-31" d="M1066.09,702.11a4.53,4.53,0,0,0,1.43-6.24l0-.06-10-15.72-7.83,4.8,10,15.72a4.55,4.55,0,0,0,6.24,1.61Z"/><circle class="cls-31" cx="1042.88" cy="663.29" r="28.14"/><path class="cls-19" d="M1017,658.69a25.6,25.6,0,0,1,2.28-7.7,25,25,0,0,1,4.56-6.63,26.72,26.72,0,0,1,14.15-7.66l2-.27a13.89,13.89,0,0,1,2,0h2a8.28,8.28,0,0,1,2,.17,25.58,25.58,0,0,1,7.79,2.28,26.35,26.35,0,0,1,6.81,4.53,27.38,27.38,0,0,1,4.86,6.36,27.94,27.94,0,0,0-12-9.87,26.76,26.76,0,0,0-15.21-1.63,26.41,26.41,0,0,0-13.61,7A28,28,0,0,0,1017,658.69Z"/><circle class="cls-32" cx="1042.91" cy="663.31" r="22.73"/><path class="cls-33" d="M1021.1,669.78a22.73,22.73,0,0,0,44.24-3.4,22.73,22.73,0,0,0-44.24,3.4Z"/><path class="cls-19" d="M1058.77,653.27a.38.38,0,0,0-.51,0,.35.35,0,0,0,0,.48l0,0a18,18,0,0,1-15.38,27.7,18.25,18.25,0,0,1-2.86-.2.38.38,0,0,0-.44.27.37.37,0,0,0,.29.44h0a23.3,23.3,0,0,0,3,.23,18.82,18.82,0,0,0,15.86-28.82Z"/><path class="cls-19" d="M1032.33,648.68a.34.34,0,0,0,0-.48.38.38,0,0,0-.51,0,18.76,18.76,0,0,0-4.25,26.18,19.48,19.48,0,0,0,1.29,1.59.32.32,0,0,0,.27,0,.33.33,0,0,0,.24,0,.38.38,0,0,0,0-.51,18.11,18.11,0,0,1,1.4-25.56c.46-.41.93-.79,1.42-1.15Z"/><path class="cls-19" d="M1042.88,651.67a10,10,0,0,1,1.73,0,.43.43,0,0,0,.41-.3.33.33,0,0,0-.26-.4h0a11.3,11.3,0,0,0-1.84,0,12.39,12.39,0,0,0-12.39,12.35,10.94,10.94,0,0,0,0,1.81.37.37,0,0,0,.34.3h0a.33.33,0,0,0,.31-.36v0a12.06,12.06,0,0,1,0-1.7,11.68,11.68,0,0,1,11.7-11.64Z"/><path class="cls-19" d="M1052,671.75a.36.36,0,0,0,0-.51.34.34,0,0,0-.48,0l0,0a11.73,11.73,0,0,1-16.59.42q-.22-.21-.42-.42a.35.35,0,0,0-.48,0l0,0a.36.36,0,0,0,0,.51,12.35,12.35,0,0,0,17.45.72q.38-.35.72-.72Z"/><path class="cls-19" d="M1048.19,652.93a11.64,11.64,0,0,1,6.36,10.21,6.61,6.61,0,0,1,0,.89.42.42,0,0,0,.34.41h0a.34.34,0,0,0,.34-.34h0a7.69,7.69,0,0,0,0-1,12.33,12.33,0,0,0-6.8-11,.38.38,0,0,0-.43.31.36.36,0,0,0,.12.33Z"/><path class="cls-19" d="M1042.88,672.91a9.53,9.53,0,0,0,8.2-4.63.36.36,0,0,0-.51-.51,8.81,8.81,0,0,1-7.59,4.29.37.37,0,0,0-.37.37h0a.34.34,0,0,0,.17.45A.17.17,0,0,0,1042.88,672.91Z"/><path class="cls-19" d="M1049.17,657.05a.38.38,0,0,0,.51.14.37.37,0,0,0,.14-.51.32.32,0,0,0-.14-.14,9.43,9.43,0,0,0-6.8-2.82,9.66,9.66,0,0,0-8.3,4.76.36.36,0,0,0,0,.51h0a.35.35,0,0,0,.3-.17,9,9,0,0,1,7.69-4.42A8.7,8.7,0,0,1,1049.17,657.05Z"/><path class="cls-17" d="M472.92,765.13c-.65-1.5-4.42-2.11-8.06-2.35-14-25.93-49.42-26.85-49.42-26.85s-2.82,11.13,12.26,29.54,15,54.89,15,54.89a67,67,0,0,0,16-13c6.81-7.38,13.34-18.24,10.52-32.56C471.42,771.05,473.64,766.76,472.92,765.13Z"/><path class="cls-34" d="M815.05,789.19l-3.4-12.76a6.8,6.8,0,0,0-7.35-4.87l-44.24,5.65a6.81,6.81,0,0,0-5.82,7.67c0,.19.06.38.1.57l3.41,13.61a6.8,6.8,0,0,0,7.55,5.1l44.44-6.8a6.82,6.82,0,0,0,5.35-8A.94.94,0,0,1,815.05,789.19Z"/><path class="cls-34" d="M895.29,738.52l10.21,8.27a6.82,6.82,0,0,0,8.82-.34l32.53-30.63a6.81,6.81,0,0,0,.19-9.62,4.75,4.75,0,0,0-.4-.38l-10.72-9.23a6.8,6.8,0,0,0-9.12.28l-32.12,31.41a6.84,6.84,0,0,0,.61,10.24Z"/></g></g></svg>