<svg xmlns="http://www.w3.org/2000/svg" viewBox="0 0 699.99 300.63"><defs><style>.cls-1,.cls-2{fill:#fff;}.cls-2{font-size:100px;font-family:LottePaperfang, Lotte Paperfang;letter-spacing:0.2em;}</style></defs><title>Asset 1</title><g id="Layer_2" data-name="Layer 2"><g id="Layer_1-2" data-name="Layer 1"><path class="cls-1" d="M415,78.16q-.16,2.85-.51,5.64-.19,1.57-.44,3.11a82.51,82.51,0,0,1-44.65,60.47c-1.29.65-2.61,1.26-3.94,1.84a82.54,82.54,0,0,1-99.76-27.52q-.83-1.15-1.62-2.33a82.51,82.51,0,0,1-10-20.68c-.33-1-.63-2-.92-3.08a81.83,81.83,0,0,1-3-19.95,81.83,81.83,0,0,0,3.61,19.46q.48,1.52,1,3a82.29,82.29,0,0,0,10.58,20.21c.55.77,1.11,1.53,1.69,2.28a82.52,82.52,0,0,0,100.34,24.54c1.36-.63,2.7-1.31,4-2a82.53,82.53,0,0,0,42-56.69q.29-1.51.54-3a83.71,83.71,0,0,0,.9-8.37q.19-3.43.1-6.79A82.37,82.37,0,0,1,415,78.16Z"/><path class="cls-1" d="M316.59,65.64,307.5,85.46l-42.11,32.88a82.28,82.28,0,0,1-10.58-20.21l59-44.54Z"/><path class="cls-1" d="M332.23,66.16l-16-12.84,2,8.64.83,3.58-7.76,16.91-3.86,3,9.09-19.82-2.81-12.06-59,44.54q-.54-1.49-1-3l59-44.57.22-.16,2.08-1.57.13.11,2.29,1.84,17,13.64Z"/><line class="cls-1" x1="265.39" y1="118.34" x2="264.08" y2="119.36"/><line class="cls-1" x1="267.07" y1="120.62" x2="265.7" y2="121.69"/><path class="cls-1" d="M413.44,86.46,364,50.68l9.69,20.93,11.85,7.14,3.12,1.88,2.11,16.11.66,5-20,41.43c-1.32.71-2.66,1.38-4,2a82.52,82.52,0,0,1-100.34-24.54c-.57-.75-1.14-1.51-1.69-2.28L307.5,85.46l3.86-3,20.87-16.29,2.26-1.76,23.32-18.21.3-.24,2-1.55,1.54,1.11.86.62L414,83.42Q413.73,84.95,413.44,86.46Z"/><line class="cls-1" x1="414.5" y1="83.79" x2="413.97" y2="83.42"/><line class="cls-1" x1="414.05" y1="86.9" x2="413.43" y2="86.46"/><line class="cls-1" x1="371.44" y1="143.14" x2="369.4" y2="147.37"/><line class="cls-1" x1="367.42" y1="145.16" x2="365.46" y2="149.21"/><line class="cls-1" x1="315.2" y1="48.75" x2="315.11" y2="48.82"/><line class="cls-1" x1="253.8" y1="95.12" x2="253.16" y2="95.6"/><line class="cls-1" x1="254.81" y1="98.12" x2="254.08" y2="98.68"/><polyline class="cls-1" points="315.24 48.92 315.2 48.75 315.16 48.6"/><path class="cls-1" d="M366.2,21.66c-20.29,4-21.59,21.66-21.59,21.66l0-.24V41.82c.29-2.37,2.71-16.44,19.32-20.81A23.36,23.36,0,0,0,366.2,21.66Z"/><path class="cls-1" d="M363.9,21c-16.61,4.37-19,18.44-19.32,20.81v1.25C341.91,25.52,323,21.66,323,21.66q1.16-.23,2.23-.51,1.55-.41,2.93-.92l1.07-.42A24.75,24.75,0,0,0,344.62,0c1.5,10.51,8.78,16.17,14.48,19,.59.3,1.17.57,1.72.81C362,20.35,363,20.73,363.9,21Z"/><path class="cls-1" d="M319.92,7a7,7,0,0,0-6,6v-.42a7,7,0,0,1,5.38-5.8A6.51,6.51,0,0,0,319.92,7Z"/><path class="cls-1" d="M319.27,6.78a7,7,0,0,0-5.38,5.8v.35c-.74-4.89-6-6-6-6l.62-.14q.43-.11.82-.26l.3-.12A6.89,6.89,0,0,0,313.9.93a7,7,0,0,0,4,5.3l.48.22C318.74,6.6,319,6.7,319.27,6.78Z"/><path class="cls-1" d="M303.68,34a8,8,0,0,0-6.85,6.88v-.47a7.94,7.94,0,0,1,6.13-6.61A7.42,7.42,0,0,0,303.68,34Z"/><path class="cls-1" d="M302.95,33.76a7.94,7.94,0,0,0-6.13,6.61v.4C296,35.19,290,34,290,34l.71-.16q.49-.13.93-.29l.34-.13a7.86,7.86,0,0,0,4.87-6.29,8,8,0,0,0,4.6,6l.55.26C302.34,33.55,302.67,33.67,302.95,33.76Z"/><path class="cls-1" d="M312.83,21.66A5,5,0,0,0,308.52,26v-.3a5,5,0,0,1,3.86-4.16A4.67,4.67,0,0,0,312.83,21.66Z"/><path class="cls-1" d="M312.37,21.53a5,5,0,0,0-3.86,4.16v.25c-.53-3.51-4.3-4.28-4.3-4.28l.45-.1q.31-.08.59-.18l.21-.08a4.94,4.94,0,0,0,3.07-4,5,5,0,0,0,2.89,3.8l.34.16C312,21.4,312.2,21.47,312.37,21.53Z"/><path class="cls-1" d="M300.32,13.39a3.69,3.69,0,0,0-3.16,3.17v-.22a3.67,3.67,0,0,1,2.83-3Z"/><path class="cls-1" d="M300,13.29a3.67,3.67,0,0,0-2.83,3v.18C296.76,14,294,13.39,294,13.39l.33-.07.43-.13.16-.06a3.63,3.63,0,0,0,2.25-2.9A3.68,3.68,0,0,0,299.28,13l.25.12Z"/><path class="cls-1" d="M324.9,35.59a5,5,0,0,0-4.31,4.33v-.3a5,5,0,0,1,3.86-4.16A4.67,4.67,0,0,0,324.9,35.59Z"/><path class="cls-1" d="M324.44,35.46a5,5,0,0,0-3.86,4.16v.25c-.53-3.51-4.3-4.28-4.3-4.28l.45-.1q.31-.08.59-.18l.21-.08a4.94,4.94,0,0,0,3.07-4,5,5,0,0,0,2.89,3.8l.34.16C324.06,35.33,324.27,35.4,324.44,35.46Z"/><rect class="cls-1" x="29.89" y="97.7" width="179.81" height="2.45"/><rect class="cls-1" x="451.08" y="103.38" width="162.81" height="2.45"/><text class="cls-2" transform="translate(0 290.33)">CAPELLA</text></g></g></svg>