<?xml version="1.0" encoding="UTF-8" standalone="no"?><!-- Generator: Gravit.io --><svg xmlns="http://www.w3.org/2000/svg" xmlns:xlink="http://www.w3.org/1999/xlink" style="isolation:isolate" viewBox="0 0 699.99 300.63" width="699.99pt" height="300.63pt"><defs><clipPath id="_clipPath_6GtJGCTDicMYIVKIkvEVRR1kci2DRN7r"><rect width="699.99" height="300.63"/></clipPath></defs><g clip-path="url(#_clipPath_6GtJGCTDicMYIVKIkvEVRR1kci2DRN7r)"><g><path d=" M 415 78.16 Q 414.84 81.01 414.49 83.8 Q 414.3 85.37 414.05 86.91 C 409.746 113.069 393.134 135.567 369.4 147.38 C 368.11 148.03 366.79 148.64 365.46 149.22 C 329.871 164.62 288.36 153.169 265.7 121.7 Q 264.87 120.55 264.08 119.37 C 259.799 112.977 256.433 106.016 254.08 98.69 C 253.75 97.69 253.45 96.69 253.16 95.61 C 251.341 89.109 250.333 82.408 250.16 75.66 C 250.572 82.269 251.784 88.803 253.77 95.12 Q 254.25 96.64 254.77 98.12 C 257.341 105.315 260.902 112.117 265.35 118.33 C 265.9 119.1 266.46 119.86 267.04 120.61 C 290.598 151.301 332.316 161.504 367.38 145.15 C 368.74 144.52 370.08 143.84 371.38 143.15 C 393.159 131.491 408.57 110.69 413.38 86.46 Q 413.67 84.95 413.92 83.46 C 414.36 80.687 414.661 77.893 414.82 75.09 Q 415.01 71.66 414.92 68.3 C 415.144 71.582 415.17 74.875 415 78.16 L 415 78.16 Z " fill="rgb(255,255,255)"/><path d=" M 316.59 65.64 L 307.5 85.46 L 265.39 118.34 C 260.942 112.127 257.381 105.325 254.81 98.13 L 313.81 53.59 L 316.59 65.64 Z " fill="rgb(255,255,255)"/><path d=" M 332.23 66.16 L 316.23 53.32 L 318.23 61.96 L 319.06 65.54 L 311.3 82.45 L 307.44 85.45 L 316.53 65.63 L 313.72 53.57 L 254.72 98.11 Q 254.18 96.62 253.72 95.11 L 312.72 50.54 L 312.94 50.38 L 315.02 48.81 L 315.15 48.92 L 317.44 50.76 L 334.44 64.4 L 332.23 66.16 Z " fill="rgb(255,255,255)"/><line x1="265.39" y1="118.34" x2="264.08" y2="119.36"/><line x1="267.07" y1="120.62" x2="265.7" y2="121.69"/><path d=" M 413.44 86.46 L 364 50.68 L 373.69 71.61 L 385.54 78.75 L 388.66 80.63 L 390.77 96.74 L 391.43 101.74 L 371.43 143.17 C 370.11 143.88 368.77 144.55 367.43 145.17 C 332.366 161.524 290.648 151.321 267.09 120.63 C 266.52 119.88 265.95 119.12 265.4 118.35 L 307.5 85.46 L 311.36 82.46 L 332.23 66.17 L 334.49 64.41 L 357.81 46.2 L 358.11 45.96 L 360.11 44.41 L 361.65 45.52 L 362.51 46.14 L 414 83.42 Q 413.73 84.95 413.44 86.46 Z " fill="rgb(255,255,255)"/><line x1="414.5" y1="83.79" x2="413.97" y2="83.42"/><line x1="414.05" y1="86.9" x2="413.43" y2="86.46"/><line x1="371.44" y1="143.14" x2="369.4" y2="147.37"/><line x1="367.42" y1="145.16" x2="365.46" y2="149.21"/><line x1="315.2" y1="48.75" x2="315.11" y2="48.82"/><line x1="253.8" y1="95.12" x2="253.16" y2="95.6"/><line x1="254.81" y1="98.12" x2="254.08" y2="98.68"/><path d=" M 315.24 48.92 L 315.2 48.75 L 315.16 48.6" fill="rgb(255,255,255)"/><path d=" M 366.2 21.66 C 345.91 25.66 344.61 43.32 344.61 43.32 L 344.61 43.08 L 344.61 41.82 C 344.9 39.45 347.32 25.38 363.93 21.01 C 364.675 21.265 365.433 21.482 366.2 21.66 Z " fill="rgb(255,255,255)"/><path d=" M 363.9 21 C 347.29 25.37 344.9 39.44 344.58 41.81 L 344.58 43.06 C 341.91 25.52 323 21.66 323 21.66 Q 324.16 21.43 325.23 21.15 Q 326.78 20.74 328.16 20.23 L 329.23 19.81 C 337.574 16.488 343.464 8.907 344.62 0 C 346.12 10.51 353.4 16.17 359.1 19 C 359.69 19.3 360.27 19.57 360.82 19.81 C 362 20.35 363 20.73 363.9 21 Z " fill="rgb(255,255,255)"/><path d=" M 319.92 7 C 316.798 7.422 314.342 9.878 313.92 13 L 313.92 12.58 C 314.344 9.721 316.481 7.417 319.3 6.78 C 319.503 6.864 319.71 6.937 319.92 7 Z " fill="rgb(255,255,255)"/><path d=" M 319.27 6.78 C 316.451 7.417 314.314 9.721 313.89 12.58 L 313.89 12.93 C 313.15 8.04 307.89 6.93 307.89 6.93 L 308.51 6.79 Q 308.94 6.68 309.33 6.53 L 309.63 6.41 C 311.937 5.487 313.569 3.393 313.9 0.93 C 314.257 3.257 315.76 5.248 317.9 6.23 L 318.38 6.45 C 318.74 6.6 319 6.7 319.27 6.78 Z " fill="rgb(255,255,255)"/><path d=" M 303.68 34 C 300.107 34.487 297.302 37.305 296.83 40.88 L 296.83 40.41 C 297.303 37.148 299.743 34.517 302.96 33.8 C 303.196 33.879 303.437 33.945 303.68 34 L 303.68 34 Z " fill="rgb(255,255,255)"/><path d=" M 302.95 33.76 C 299.733 34.477 297.293 37.108 296.82 40.37 L 296.82 40.77 C 296 35.19 290 34 290 34 L 290.71 33.84 Q 291.2 33.71 291.64 33.55 L 291.98 33.42 C 294.623 32.36 296.486 29.954 296.85 27.13 C 297.282 29.774 299.009 32.026 301.45 33.13 L 302 33.39 C 302.34 33.55 302.67 33.67 302.95 33.76 Z " fill="rgb(255,255,255)"/><path d=" M 312.83 21.66 C 310.573 21.957 308.801 23.741 308.52 26 L 308.52 25.7 C 308.819 23.647 310.355 21.991 312.38 21.54 C 312.528 21.587 312.678 21.628 312.83 21.66 Z " fill="rgb(255,255,255)"/><path d=" M 312.37 21.53 C 310.345 21.981 308.809 23.637 308.51 25.69 L 308.51 25.94 C 307.98 22.43 304.21 21.66 304.21 21.66 L 304.66 21.56 Q 304.97 21.48 305.25 21.38 L 305.46 21.3 C 307.138 20.629 308.315 19.095 308.53 17.3 C 308.787 18.974 309.875 20.405 311.42 21.1 L 311.76 21.26 C 312 21.4 312.2 21.47 312.37 21.53 Z " fill="rgb(255,255,255)"/><path d=" M 300.32 13.39 C 298.673 13.614 297.379 14.912 297.16 16.56 L 297.16 16.34 C 297.399 14.854 298.521 13.665 299.99 13.34 L 300.32 13.39 Z " fill="rgb(255,255,255)"/><path d=" M 300 13.29 C 298.531 13.615 297.409 14.804 297.17 16.29 L 297.17 16.47 C 296.76 14 294 13.39 294 13.39 L 294.33 13.32 L 294.76 13.19 L 294.92 13.13 C 296.139 12.642 297 11.533 297.17 10.23 C 297.364 11.449 298.157 12.489 299.28 13 L 299.53 13.12 L 300 13.29 Z " fill="rgb(255,255,255)"/><path d=" M 324.9 35.59 C 322.646 35.886 320.875 37.665 320.59 39.92 L 320.59 39.62 C 320.889 37.567 322.425 35.911 324.45 35.46 C 324.598 35.511 324.748 35.554 324.9 35.59 L 324.9 35.59 Z " fill="rgb(255,255,255)"/><path d=" M 324.44 35.46 C 322.415 35.911 320.879 37.567 320.58 39.62 L 320.58 39.87 C 320.05 36.36 316.28 35.59 316.28 35.59 L 316.73 35.49 Q 317.04 35.41 317.32 35.31 L 317.53 35.23 C 319.208 34.559 320.385 33.025 320.6 31.23 C 320.857 32.904 321.945 34.335 323.49 35.03 L 323.83 35.19 C 324.06 35.33 324.27 35.4 324.44 35.46 Z " fill="rgb(255,255,255)"/><rect x="29.89" y="97.7" width="179.81" height="2.45" transform="matrix(1,0,0,1,0,0)" fill="rgb(255,255,255)"/><rect x="451.08" y="103.38" width="162.81" height="2.45" transform="matrix(1,0,0,1,0,0)" fill="rgb(255,255,255)"/><g><g><g><g><g><path d=" M 56 260.33 L 56 260.33 L 56 240.33 L 56 240.33 Q 56 234.13 58.35 228.63 L 58.35 228.63 L 58.35 228.63 Q 60.7 223.13 64.75 219.08 L 64.75 219.08 L 64.75 219.08 Q 68.8 215.03 74.3 212.68 L 74.3 212.68 L 74.3 212.68 Q 79.8 210.33 86 210.33 L 86 210.33 L 86 210.33 Q 92.2 210.33 97.7 212.68 L 97.7 212.68 L 97.7 212.68 Q 103.2 215.03 107.25 219.08 L 107.25 219.08 L 107.25 219.08 Q 111.3 223.13 113.65 228.63 L 113.65 228.63 L 113.65 228.63 Q 116 234.13 116 240.33 L 116 240.33 L 108 240.33 L 108 240.33 Q 108 235.73 106.3 231.73 L 106.3 231.73 L 106.3 231.73 Q 104.6 227.73 101.6 224.73 L 101.6 224.73 L 101.6 224.73 Q 98.6 221.73 94.6 220.03 L 94.6 220.03 L 94.6 220.03 Q 90.6 218.33 86 218.33 L 86 218.33 L 86 218.33 Q 81.5 218.33 77.5 220.08 L 77.5 220.08 L 77.5 220.08 Q 73.5 221.83 70.5 224.83 L 70.5 224.83 L 70.5 224.83 Q 67.5 227.83 65.75 231.83 L 65.75 231.83 L 65.75 231.83 Q 64 235.83 64 240.33 L 64 240.33 L 64 260.33 L 64 260.33 Q 64 264.93 65.7 268.93 L 65.7 268.93 L 65.7 268.93 Q 67.4 272.93 70.4 275.93 L 70.4 275.93 L 70.4 275.93 Q 73.4 278.93 77.4 280.63 L 77.4 280.63 L 77.4 280.63 Q 81.4 282.33 86 282.33 L 86 282.33 L 86 282.33 Q 90.5 282.33 94.5 280.63 L 94.5 280.63 L 94.5 280.63 Q 98.5 278.93 101.5 275.93 L 101.5 275.93 L 101.5 275.93 Q 104.5 272.93 106.25 268.93 L 106.25 268.93 L 106.25 268.93 Q 108 264.93 108 260.33 L 108 260.33 L 116 260.33 L 116 260.33 Q 116 266.53 113.65 272.03 L 113.65 272.03 L 113.65 272.03 Q 111.3 277.53 107.2 281.58 L 107.2 281.58 L 107.2 281.58 Q 103.1 285.63 97.65 287.98 L 97.65 287.98 L 97.65 287.98 Q 92.2 290.33 86 290.33 L 86 290.33 L 86 290.33 Q 79.8 290.33 74.3 287.98 L 74.3 287.98 L 74.3 287.98 Q 68.8 285.63 64.75 281.58 L 64.75 281.58 L 64.75 281.58 Q 60.7 277.53 58.35 272.03 L 58.35 272.03 L 58.35 272.03 Q 56 266.53 56 260.33 Z  M 196 290.33 L 187.4 290.33 L 187.4 290.33 Q 185.8 286.13 183.9 281.03 L 183.9 281.03 L 183.9 281.03 Q 182 275.93 179.9 270.33 L 179.9 270.33 L 152.1 270.33 L 152.1 270.33 Q 150 275.83 148.1 280.93 L 148.1 280.93 L 148.1 280.93 Q 146.2 286.03 144.6 290.33 L 144.6 290.33 L 136 290.33 L 166 210.33 L 196 290.33 Z  M 155.1 262.23 L 155.1 262.23 L 177 262.23 L 177 262.23 Q 175.3 257.73 173.7 253.48 L 173.7 253.48 L 173.7 253.48 Q 172.1 249.23 170.65 245.43 L 170.65 245.43 L 170.65 245.43 Q 169.2 241.63 168 238.48 L 168 238.48 L 168 238.48 Q 166.8 235.33 166 233.13 L 166 233.13 L 166 233.13 Q 165.2 235.23 164 238.38 L 164 238.38 L 164 238.38 Q 162.8 241.53 161.4 245.33 L 161.4 245.33 L 161.4 245.33 Q 160 249.13 158.4 253.43 L 158.4 253.43 L 158.4 253.43 Q 156.8 257.73 155.1 262.23 Z  M 216 210.33 L 245.9 210.33 L 245.9 210.33 Q 252.2 210.33 257.7 212.68 L 257.7 212.68 L 257.7 212.68 Q 263.2 215.03 267.25 219.08 L 267.25 219.08 L 267.25 219.08 Q 271.3 223.13 273.65 228.63 L 273.65 228.63 L 273.65 228.63 Q 276 234.13 276 240.33 L 276 240.33 L 276 240.33 Q 276 246.53 273.65 252.03 L 273.65 252.03 L 273.65 252.03 Q 271.3 257.53 267.2 261.58 L 267.2 261.58 L 267.2 261.58 Q 263.1 265.63 257.6 267.98 L 257.6 267.98 L 257.6 267.98 Q 252.1 270.33 245.9 270.33 L 245.9 270.33 L 224 270.33 L 224 290.33 L 216 290.33 L 216 210.33 Z  M 224 262.33 L 245.9 262.33 L 245.9 262.33 Q 250.4 262.33 254.45 260.63 L 254.45 260.63 L 254.45 260.63 Q 258.5 258.93 261.5 255.93 L 261.5 255.93 L 261.5 255.93 Q 264.5 252.93 266.25 248.93 L 266.25 248.93 L 266.25 248.93 Q 268 244.93 268 240.33 L 268 240.33 L 268 240.33 Q 268 235.83 266.25 231.83 L 266.25 231.83 L 266.25 231.83 Q 264.5 227.83 261.5 224.83 L 261.5 224.83 L 261.5 224.83 Q 258.5 221.83 254.45 220.08 L 254.45 220.08 L 254.45 220.08 Q 250.4 218.33 245.9 218.33 L 245.9 218.33 L 224 218.33 L 224 262.33 Z  M 356 210.33 L 356 218.33 L 304 218.33 L 304 246.33 L 346 246.33 L 346 254.33 L 304 254.33 L 304 282.33 L 356 282.33 L 356 290.33 L 296 290.33 L 296 210.33 L 356 210.33 Z  M 376 290.33 L 376 210.33 L 384 210.33 L 384 282.33 L 436 282.33 L 436 290.33 L 376 290.33 Z  M 456 290.33 L 456 210.33 L 464 210.33 L 464 282.33 L 516 282.33 L 516 290.33 L 456 290.33 Z  M 596 290.33 L 587.4 290.33 L 587.4 290.33 Q 585.8 286.13 583.9 281.03 L 583.9 281.03 L 583.9 281.03 Q 582 275.93 579.9 270.33 L 579.9 270.33 L 552.1 270.33 L 552.1 270.33 Q 550 275.83 548.1 280.93 L 548.1 280.93 L 548.1 280.93 Q 546.2 286.03 544.6 290.33 L 544.6 290.33 L 536 290.33 L 566 210.33 L 596 290.33 Z  M 555.1 262.23 L 555.1 262.23 L 577 262.23 L 577 262.23 Q 575.3 257.73 573.7 253.48 L 573.7 253.48 L 573.7 253.48 Q 572.1 249.23 570.65 245.43 L 570.65 245.43 L 570.65 245.43 Q 569.2 241.63 568 238.48 L 568 238.48 L 568 238.48 Q 566.8 235.33 566 233.13 L 566 233.13 L 566 233.13 Q 565.2 235.23 564 238.38 L 564 238.38 L 564 238.38 Q 562.8 241.53 561.4 245.33 L 561.4 245.33 L 561.4 245.33 Q 560 249.13 558.4 253.43 L 558.4 253.43 L 558.4 253.43 Q 556.8 257.73 555.1 262.23 Z " fill-rule="evenodd" fill="rgb(255,255,255)"/></g></g></g></g></g></g></g></svg>